<svg width="40" height="40" viewBox="0 0 40 40" fill="none" xmlns="http://www.w3.org/2000/svg">
<path d="M38.6708 20.8466L31.5121 18.0502C31.2573 17.9508 30.7291 17.8203 30.1325 18.0502L22.9738 20.8466C22.3089 21.1076 21.8739 21.7166 21.8739 22.394C21.8739 29.329 26.143 34.1263 30.1325 35.6861C30.7291 35.916 31.2511 35.7855 31.5121 35.6861C34.7 34.4432 39.7707 30.1306 39.7707 22.394C39.7707 21.7166 39.3357 21.1076 38.6708 20.8466ZM30.8223 32.7343V20.9833L36.7568 23.3012C36.4088 28.7138 32.9724 31.7152 30.8223 32.7343ZM13.9198 19.9083C18.3132 19.9083 21.8739 16.3476 21.8739 11.9541C21.8739 7.56072 18.3132 4 13.9198 4C9.52633 4 5.96561 7.56072 5.96561 11.9541C5.96561 16.3476 9.52633 19.9083 13.9198 19.9083ZM19.8854 22.394C19.8854 22.2386 19.9351 22.0957 19.9537 21.9465C19.7984 21.9403 19.6492 21.8968 19.4877 21.8968H18.4499C17.0703 22.5307 15.5354 22.8911 13.9198 22.8911C12.3041 22.8911 10.7754 22.5307 9.38962 21.8968H8.35185C3.74093 21.8968 0 25.6378 0 30.2487V32.8338C0 34.4805 1.33605 35.8166 2.9828 35.8166H24.8567C25.2793 35.8166 25.6832 35.7234 26.0498 35.568C22.6942 32.9021 19.8854 28.3161 19.8854 22.394Z" fill="black"/>
</svg>
